# xmcd CD database file
#
# Track frame offsets:
#	150
#	14205
#	34603
#	60211
#	93476
#	123863
#	136305
#	149175
#	163245
#	185978
#	199283
#	221025
#	237395
#
# Disc length: 3514 seconds
#
# Revision: 0
# Processed by: cddbd v1.5.2PL0 Copyright (c) Steve Scherf et al.
# Submitted via: CDex 1.51
#
DISCID=ce0db80d
DTITLE=Tommy McCoy - (2008) Triple Trouble
DYEAR=2008
DGENRE=Blues
TTITLE0=No Love Without Amy Green
TTITLE1=It's These Blues
TTITLE2=Love 'N' Money
TTITLE3=The Change Is In
TTITLE4=Money
TTITLE5=Money (That's What I Want)
TTITLE6=Broke You're A Joke
TTITLE7=Poverty
TTITLE8=Con Man
TTITLE9=She Worships Money
TTITLE10=Gimme A Little Sigh
TTITLE11=Ain't Gonna Take No Mo
TTITLE12=Ace In The Hole
EXTD=YEAR: 2008
EXTT0=
EXTT1=
EXTT2=
EXTT3=
EXTT4=
EXTT5=
EXTT6=
EXTT7=
EXTT8=
EXTT9=
EXTT10=
EXTT11=
EXTT12=
PLAYORDER=
